HIERARCHY
ROOT root
{
	OFFSET 0.000000 0.000000 0.000000
	CHANNELS 6 Xposition Yposition Zposition Zrotation Yrotation Xrotation
	JOINT lhip
	{
		OFFSET 0.058581 -0.082280 -0.017664
		CHANNELS 3 Zrotation Yrotation Xrotation
		JOINT lknee
		{
			OFFSET 0.043451 -0.386469 0.008037
			CHANNELS 3 Zrotation Yrotation Xrotation
			JOINT lankle
			{
				OFFSET -0.014790 -0.426874 -0.037428
				CHANNELS 3 Zrotation Yrotation Xrotation
				JOINT ltoe
				{
					OFFSET 0.041054 -0.060286 0.122042
					CHANNELS 3 Zrotation Yrotation Xrotation
					End Site
					{
						OFFSET 0.000000 0.000000 0.000000
					}
				}
			}
		}
	}
	JOINT rhip
	{
		OFFSET -0.060310 -0.090513 -0.013543
		CHANNELS 3 Zrotation Yrotation Xrotation
		JOINT rknee
		{
			OFFSET -0.043257 -0.383688 -0.004843
			CHANNELS 3 Zrotation Yrotation Xrotation
			JOINT rankle
			{
				OFFSET 0.019056 -0.420046 -0.034562
				CHANNELS 3 Zrotation Yrotation Xrotation
				JOINT rtoe
				{
					OFFSET -0.034840 -0.062106 0.130323
					CHANNELS 3 Zrotation Yrotation Xrotation
					End Site
					{
						OFFSET 0.000000 0.000000 0.000000
					}
				}
			}
		}
	}
	JOINT lowerback
	{
		OFFSET 0.004439 0.124404 -0.038385
		CHANNELS 3 Zrotation Yrotation Xrotation
		JOINT upperback
		{
			OFFSET 0.004488 0.137956 0.026820
			CHANNELS 3 Zrotation Yrotation Xrotation
			JOINT chest
			{
				OFFSET -0.002265 0.056032 0.002855
				CHANNELS 3 Zrotation Yrotation Xrotation
				JOINT lowerneck
				{
					OFFSET -0.013390 0.211636 -0.033468
					CHANNELS 3 Zrotation Yrotation Xrotation
					JOINT upperneck
					{
						OFFSET 0.010113 0.088937 0.050410
						CHANNELS 3 Zrotation Yrotation Xrotation
						End Site
						{
							OFFSET 0.000000 0.000000 0.000000
						}
					}
				}
				JOINT lclavicle
				{
					OFFSET 0.071702 0.114000 -0.018898
					CHANNELS 3 Zrotation Yrotation Xrotation
					JOINT lshoulder
					{
						OFFSET 0.122921 0.045205 -0.019046
						CHANNELS 3 Zrotation Yrotation Xrotation
						JOINT lelbow
						{
							OFFSET 0.255332 -0.015649 -0.022946
							CHANNELS 3 Zrotation Yrotation Xrotation
							JOINT lwrist
							{
								OFFSET 0.265709 0.012698 -0.007375
								CHANNELS 3 Zrotation Yrotation Xrotation
								End Site
								{
									OFFSET 0.000000 0.000000 0.000000
								}
							}
						}
					}
				}
				JOINT rclavicle
				{
					OFFSET -0.082954 0.112472 -0.023707
					CHANNELS 3 Zrotation Yrotation Xrotation
					JOINT rshoulder
					{
						OFFSET -0.113228 0.046853 -0.008472
						CHANNELS 3 Zrotation Yrotation Xrotation
						JOINT relbow
						{
							OFFSET -0.260127 -0.014369 -0.031269
							CHANNELS 3 Zrotation Yrotation Xrotation
							JOINT rwrist
							{
								OFFSET -0.269108 0.006794 -0.006027
								CHANNELS 3 Zrotation Yrotation Xrotation
								End Site
								{
									OFFSET 0.000000 0.000000 0.000000
								}
							}
						}
					}
				}
			}
		}
	}
}
MOTION
Frames: 7
Frame Time: 0.033333
-1.515957 0.676184 0.929355 88.059413 5.365319 82.860944 3.184867 6.508468 16.248580 -2.667427 3.801711 24.512269 0.021099 21.949583 -50.036308 0.000000 -0.000000 0.000000 -13.074033 2.895508 -18.646497 -0.951950 0.311925 46.088183 12.361022 -7.768662 -13.774018 0.000000 -0.000000 0.000000 3.649915 -0.149157 6.988218 3.568523 5.578145 -0.815364 1.617444 2.576450 1.420726 13.215988 -9.456757 0.542308 -4.649447 -4.884388 6.703815 -16.956300 12.932740 1.825722 -59.144961 15.016047 8.905625 -19.479082 -65.050693 37.852671 9.008673 -9.304953 -28.960063 12.067553 11.225992 -7.784507 37.982396 44.728404 9.619514 -125.941460 56.518764 -127.027007 -22.128672 6.140265 -49.367316 
-1.500677 0.639481 0.918889 83.719966 6.280866 82.858514 5.424390 7.728806 15.764973 -0.656161 5.612543 28.198555 -1.921220 23.545062 -50.949224 0.000000 -0.000000 0.000000 -10.500387 -0.496994 -16.869572 -0.171786 -4.014880 43.991281 7.890416 -8.508920 -22.822211 0.000000 -0.000000 0.000000 3.154808 1.768347 6.535895 4.079710 6.002682 0.033013 2.120618 3.174983 1.290854 12.934393 -5.952407 -0.508338 -5.078265 -6.460040 7.121063 -18.273449 12.716755 1.819565 -58.980797 16.677018 7.609521 -16.683828 -55.728995 36.091580 5.449084 -8.355187 -26.247685 16.659298 11.485627 -4.285181 39.892679 42.700028 9.803225 -120.744725 62.101507 -122.017082 -23.353492 2.605239 -50.889724 
-1.488274 0.606761 0.915801 80.089401 7.633373 82.826418 7.418602 7.201301 12.010514 1.973856 6.867864 37.948711 -4.357869 25.257049 -48.095921 0.000000 -0.000000 0.000000 -8.044595 -0.719466 -16.164007 1.878957 -5.005446 43.523018 5.673455 -6.849451 -26.418914 0.000000 -0.000000 0.000000 3.077616 2.739190 7.379006 4.639790 6.459654 0.338727 2.286147 3.843404 1.313682 13.498153 -2.524995 -2.883508 -5.918097 -7.470423 7.589736 -18.787533 12.855191 1.447282 -58.152999 19.446217 7.740220 -16.739701 -48.993644 38.456399 2.696786 -8.857148 -22.651318 18.586038 12.192395 -2.898318 40.154117 42.879512 9.358690 -108.355803 66.824714 -110.687706 -24.684725 -0.014059 -52.031273 
-1.477578 0.580948 0.923016 79.641545 9.258143 82.734227 8.740890 2.845610 3.538477 4.350422 5.970357 54.735590 -3.355011 26.248538 -37.656392 0.000000 -0.000000 0.000000 -6.563190 -0.909430 -13.206026 3.976241 -7.870086 40.774039 3.904827 -4.388547 -26.928735 0.000000 -0.000000 0.000000 3.823813 4.129179 8.995347 5.280810 6.228886 0.920683 2.270722 4.037542 0.463603 13.974665 -1.415452 -4.788723 -6.160897 -8.849429 7.127974 -19.034075 12.170407 1.809852 -56.957899 21.097988 8.614669 -17.273188 -44.798845 42.766531 -3.921533 -10.162108 -18.077933 18.958985 13.133256 -2.239753 37.331551 42.772156 5.806150 -93.059170 68.509622 -94.899347 -23.495622 1.528461 -52.404554 
-1.464533 0.554119 0.937965 79.214478 10.204648 82.310335 10.171710 -0.952144 -8.500323 0.338277 2.671714 73.986142 1.994848 19.422330 -28.587155 0.000000 -0.000000 0.000000 -4.137112 -2.733997 -8.186598 4.821592 -8.081157 34.883975 1.889951 -2.971743 -26.119882 0.000000 -0.000000 0.000000 4.182565 7.018194 11.988951 5.413723 6.470419 1.615642 2.639128 4.718807 -1.072149 13.804616 -2.557233 -6.350605 -4.779946 -9.736603 4.805307 -19.376792 11.680895 2.503155 -54.416000 22.881490 8.521787 -20.186262 -45.962172 49.024279 -13.761146 -11.596619 -16.027267 18.624621 15.027678 -1.134534 32.058630 42.175733 -1.003845 -76.927849 66.472343 -78.872429 -19.728727 5.211439 -51.613068 
-1.450010 0.535334 0.951112 77.574346 10.023134 80.094736 10.760990 -0.800599 -15.159239 -4.663126 2.212362 82.911383 2.394337 12.868711 -28.166976 0.000000 -0.000000 0.000000 -1.975023 -3.293852 -2.305583 3.504610 -5.857304 29.534899 1.655174 -3.146855 -24.919715 0.000000 -0.000000 0.000000 4.156874 9.121585 16.814527 4.627123 7.154447 1.101930 3.126521 5.947403 -1.102115 13.247297 -3.009465 -7.879989 -3.475396 -10.084053 3.253302 -19.044978 11.043833 2.374791 -53.464760 24.429865 8.189490 -22.453484 -47.451685 50.192784 -13.294258 -13.152559 -18.551643 17.511662 17.031612 -1.419327 30.401805 41.586085 -4.320190 -66.496814 62.955494 -69.649449 -18.964092 5.858800 -49.107519 
-1.432567 0.519154 0.962523 76.871101 9.139695 78.623381 10.748702 -0.783068 -21.881185 -4.973193 4.670450 86.478625 2.419408 11.154575 -27.105723 0.000000 -0.000000 0.000000 -1.023276 -4.543610 3.428617 1.989857 -3.386931 23.704518 1.698210 -3.831811 -23.828606 0.000000 -0.000000 0.000000 3.983542 11.197436 20.259432 3.765137 7.004892 0.841938 3.367809 6.812324 -0.926532 11.891427 -4.010977 -8.002529 -2.295144 -9.717223 2.231922 -18.349524 9.847214 2.901902 -53.359893 25.090268 8.052423 -23.858691 -47.929037 49.335179 -9.164328 -13.361768 -22.031215 16.157604 18.671427 -1.285457 30.301417 40.671202 -6.055884 -58.332743 58.619098 -62.807915 -18.689936 5.797805 -45.661230 
